<?xml version="1.0" encoding="UTF-8"?><svg id="Layer_2" xmlns="http://www.w3.org/2000/svg" viewBox="0 0 544.21 488.94"><defs><style>.cls-1{fill:#002054;}.cls-2{fill:#fff;}</style></defs><g id="Layer_1-2"><g><path class="cls-1" d="M512.67,205.93c-1.58-3.54-4.43-6.58-8.55-8.8-12.97-7.01-27.21,.99-29.89,16.78-3.59,21.14-15.61,30.82-37.27,30.13-17.21-.54-29-10.14-38.42-23.28-11.06-15.42-17.7-32.98-22.51-51.1-13.34-50.21-21.07-101.45-26.86-153.01-.84-7.49-.64-16.11-11.36-16.64-9.54-.47-11.1,6.6-13.07,14-11.77,44.03-28.86,86.07-48.56,127.09-.81,1.68-.87,4.64-4.06,4.55v47.02h25.1c.75-1.87,17.95-41.55,28.21-62.44,6.64,26.49,12.3,52.89,21.98,77.04,8.76,21.85,21.19,46.43,46.13,63.52,10.55,7.22,19.27,10.15,22.8,11.23,3.52,1.07,22.18,6.47,45.35,.45,8.95-2.32,15.89-5.66,20.41-8.16,0,0,24.69-13.8,31.63-57.02,.49-3.02,.85-7.12-1.05-11.36Z"/><path class="cls-1" d="M31.54,205.93c1.58-3.54,4.43-6.58,8.55-8.8,12.97-7.01,27.21,.99,29.89,16.78,3.59,21.14,15.61,30.82,37.27,30.13,17.21-.54,29-10.14,38.42-23.28,11.06-15.42,17.7-32.98,22.51-51.1,13.34-50.21,21.07-101.45,26.86-153.01,.84-7.49,.64-16.11,11.36-16.64,9.54-.47,11.1,6.6,13.07,14,11.77,44.03,28.86,86.07,48.56,127.09,.81,1.68,.87,4.64,4.06,4.55v47.02h-25.1c-.75-1.87-17.95-41.55-28.21-62.44-6.64,26.49-12.3,52.89-21.98,77.04-8.76,21.85-21.19,46.43-46.13,63.52-10.55,7.22-19.27,10.15-22.8,11.23-3.52,1.07-22.18,6.47-45.35,.45-8.95-2.32-15.89-5.66-20.41-8.16,0,0-24.69-13.8-31.63-57.02-.49-3.02-.85-7.12,1.05-11.36Z"/></g><path class="cls-2" d="M543.14,364.61c-5.76-35.62-28.7-58.35-60.45-72.45-24.38-10.83-49.58-13.94-75.22-8.94-3.22,.96-6.51,1.72-9.87,2.31-1.68,.3-2.87,.75-4.37,1.26-2.54,.85-4.57,1.75-5.96,2.41-3.56,1.18-7.21,2.48-10.93,3.91-8.37,3.22-16.04,6.7-23.01,10.23-1.92,1.17-4.79,2.93-8.26,5.09-36.97,23.13-61.47,41.13-80.88,58.32-27.84,24.66-57.57,46.67-90.82,63.67-31.83,16.28-64.48,22.73-98.98,8.66-32.3-13.17-51.02-41.31-46.84-70.61,.25-1.76,1.09-3.45,2.37-7.34,23.25,47.06,61.44,59.7,106.82,36.16,52.2-27.08,96.74-64.32,138.13-105.6,6.81-6.79,9.93-14.54,2.02-21.99-7.34-6.91-14.49-3.42-20.94,2.85-10.76,10.47-21.77,20.67-32.7,30.96-2.66,2.5-5.44,5.35-8.72,5.23-2.25-.08-12.89-7.83-22.44-11.09-7.79-3.38-32.68-11.13-33.95-11.32-2.11-.47-5.19-1.13-8.94-1.79-14.07-2.48-40.45-7.06-69.14,.88-9.94,2.75-19.7,6.75-29.22,12.1-55.77,31.32-67.8,97.25-25.43,140.04,28.26,28.53,63.44,39.69,102.92,35.08,37.91-4.43,69.77-23.81,100.95-44.31,29.16-19.17,53.62-44.17,81.39-65.02,30.89-23.19,62.56-45.63,101.4-53.24,33.38-6.54,63.73,1.31,87.91,26.21,15.28,15.72,21.77,34.57,14.43,59.11-16.98-42.32-48.91-57.42-90.35-44.51-4.91,1.53-9.82,3.35-14.38,5.71-53.12,27.52-98.49,65.22-140.54,107.23-6.41,6.4-8.93,14.04-1.75,21.01,7.11,6.9,14.53,4.23,21.08-2.1,9.45-9.14,19.44-17.75,28.38-27.35,7.82-8.4,14.17-9.28,25.16-3.69,44.3,22.54,90.55,30.88,138.62,11.94,43.51-17.14,69.25-57.38,62.51-99.06Zm-469.19-44.95c13.95-8.91,29.75-10.91,45.75-11.65,21.93,.81,42.77,5.7,62.73,14.67,7.94,3.56,10.83,6.44,1.92,12.79-20.66,14.73-41.54,29-64.61,39.79-9.53,4.46-19.42,6.94-30,6.05-15.93-1.34-28.27-11.32-31.68-25.6-3.36-14.05,2.38-27.4,15.89-36.04Zm398.03,114.76c-14.11,9.6-30.35,11.84-46.4,12.37-22.45-.55-43.23-5.74-63.22-14.49-7.47-3.27-11.58-5.93-2.2-12.68,20.59-14.82,41.56-28.95,64.54-39.84,11.24-5.33,23.02-8.27,35.5-5.38,14.06,3.26,23.48,11.76,26.39,26.06,2.93,14.41-2.69,25.87-14.61,33.97Z"/></g></svg>